<svg id="Layer_1" data-name="Layer 1" xmlns="http://www.w3.org/2000/svg" viewBox="0 0 648 266"><defs><style>.cls-1{opacity:0.8;}.cls-2{fill:#3d3d3d;}.cls-3{font-size:72px;fill:#f9f9f9;font-family:PlayfairDisplay-Bold, Playfair Display;font-weight:700;}.cls-4{letter-spacing:-0.02em;}.cls-5,.cls-8{font-size:36px;}.cls-5{fill:#f5f7f7;font-family:PlayfairDisplay-Regular, Playfair Display;}.cls-6{letter-spacing:-0.02em;}.cls-7{letter-spacing:-0.02em;}.cls-8{fill:#fff;font-family:Lato-LightItalic, Lato;font-style:italic;}.cls-9{letter-spacing:-0.01em;}.cls-10{letter-spacing:-0.02em;}.cls-11{letter-spacing:-0.02em;}.cls-12{letter-spacing:-0.02em;}.cls-13{letter-spacing:-0.02em;}.cls-14{letter-spacing:-0.02em;}.cls-15{letter-spacing:-0.01em;}</style></defs><title>aisha-dialog</title><g class="cls-1"><rect class="cls-2" x="0.5" y="0.5" width="647" height="265" rx="11.5" ry="11.5"/><path d="M637,1a11,11,0,0,1,11,11V254a11,11,0,0,1-11,11H13A11,11,0,0,1,2,254V12A11,11,0,0,1,13,1H637m0-1H13A12,12,0,0,0,1,12V254a12,12,0,0,0,12,12H637a12,12,0,0,0,12-12V12A12,12,0,0,0,637,0Z" transform="translate(-1)"/></g><text class="cls-3" transform="translate(40.19 95.53)"><tspan class="cls-4">A</tspan><tspan x="46.58" y="0">ISHA</tspan></text><text class="cls-5" transform="translate(40.64 149.61)">F<tspan class="cls-6" x="20.48" y="0">r</tspan><tspan x="35.78" y="0">eelance Graphic Designe</tspan><tspan class="cls-7" x="434.55" y="0">r</tspan></text><text class="cls-8" transform="translate(40.46 234.39)">Imaginati<tspan class="cls-9" x="135.61" y="0">v</tspan><tspan x="151.54" y="0">e, d</tspan><tspan class="cls-10" x="200.09" y="0">r</tspan><tspan x="211.46" y="0">ea</tspan><tspan class="cls-11" x="245.21" y="0">m</tspan><tspan x="272.59" y="0">y &amp; </tspan><tspan class="cls-12" x="325.67" y="0">e</tspan><tspan x="340.97" y="0">xt</tspan><tspan class="cls-13" x="368.19" y="0">r</tspan><tspan x="379.56" y="0">eme int</tspan><tspan class="cls-14" x="485.11" y="0">r</tspan><tspan x="496.49" y="0">o</tspan><tspan class="cls-15" x="514.27" y="0">v</tspan><tspan x="530.2" y="0">ert</tspan></text></svg>