<svg id="Layer_1" data-name="Layer 1" xmlns="http://www.w3.org/2000/svg" viewBox="0 0 648 266"><defs><style>.cls-1{opacity:0.8;}.cls-2{fill:#3d3d3d;}.cls-3{font-size:72px;fill:#f9f9f9;font-family:PlayfairDisplay-Bold, Playfair Display;font-weight:700;}.cls-4{letter-spacing:0em;}.cls-5{letter-spacing:0em;}.cls-6{letter-spacing:-0.06em;}.cls-12,.cls-7{font-size:36px;}.cls-7{fill:#f5f7f7;font-family:PlayfairDisplay-Regular, Playfair Display;}.cls-8{letter-spacing:-0.02em;}.cls-9{letter-spacing:-0.02em;}.cls-10{letter-spacing:-0.02em;}.cls-11{letter-spacing:0em;}.cls-12{fill:#fff;font-family:Lato-LightItalic, Lato;font-style:italic;}</style></defs><title>priya-dialogue</title><g class="cls-1"><rect class="cls-2" x="0.5" y="0.5" width="647" height="265" rx="11.5" ry="11.5"/><path d="M637,1a11,11,0,0,1,11,11V254a11,11,0,0,1-11,11H13A11,11,0,0,1,2,254V12A11,11,0,0,1,13,1H637m0-1H13A12,12,0,0,0,1,12V254a12,12,0,0,0,12,12H637a12,12,0,0,0,12-12V12A12,12,0,0,0,637,0Z" transform="translate(-1)"/></g><text class="cls-3" transform="translate(40.19 95.53)"><tspan class="cls-4">P</tspan><tspan class="cls-5" x="45.79" y="0">RI</tspan><tspan class="cls-6" x="122.69" y="0">Y</tspan><tspan x="163.51" y="0">A</tspan></text><text class="cls-7" transform="translate(40.64 149.61)">Ent<tspan class="cls-8" x="56.16" y="0">r</tspan><tspan x="71.46" y="0">ep</tspan><tspan class="cls-9" x="110.59" y="0">r</tspan><tspan x="125.89" y="0">eneu</tspan><tspan class="cls-10" x="204.73" y="0">r</tspan><tspan class="cls-11" x="219.99" y="0" xml:space="preserve"> &amp; CEO</tspan></text><text class="cls-12" transform="translate(40.46 234.39)">Ambitious, Realistic and optimist</text></svg>